<?xml version="1.0" standalone="no"?>
<!DOCTYPE svg PUBLIC "-//W3C//DTD SVG 20010904//EN"
 "http://www.w3.org/TR/2001/REC-SVG-20010904/DTD/svg10.dtd">
<svg version="1.0" xmlns="http://www.w3.org/2000/svg"
 width="512.000000pt" height="512.000000pt" viewBox="0 0 512.000000 512.000000"
 preserveAspectRatio="xMidYMid meet">
<metadata>
Created by potrace 1.14, written by Peter Selinger 2001-2017
</metadata>
<g transform="translate(0.000000,512.000000) scale(0.100000,-0.100000)"
fill="#000000" stroke="none">
<path d="M0 2560 l0 -2560 2560 0 2560 0 0 2560 0 2560 -2560 0 -2560 0 0
-2560z m2710 1347 c0 -2 -29 -149 -65 -327 -36 -178 -65 -325 -65 -327 0 -2
83 -3 184 -3 182 0 184 0 189 23 3 12 31 150 62 307 30 157 58 295 60 308 5
22 6 22 205 22 110 0 200 -3 200 -6 0 -3 -29 -148 -65 -322 -36 -173 -65 -319
-65 -324 0 -4 52 -8 115 -8 l115 0 0 -190 0 -190 -155 0 c-152 0 -155 0 -160
-22 -6 -26 -95 -470 -95 -475 0 -2 92 -3 205 -3 l205 0 0 -190 0 -190 -244 0
-244 0 -16 -67 c-8 -38 -38 -188 -68 -335 l-53 -268 -192 0 c-106 0 -193 3
-193 7 0 7 116 602 125 641 l5 22 -187 -2 -188 -3 -67 -330 c-37 -181 -67
-331 -68 -332 0 -4 -390 -4 -390 0 0 2 29 149 65 327 36 178 65 328 65 332 0
4 -52 8 -115 8 l-115 0 0 190 0 190 155 0 c152 0 155 0 160 23 6 25 95 469 95
474 0 2 -92 3 -205 3 l-205 0 0 190 0 190 244 0 244 0 10 48 c6 26 36 174 68
330 l58 282 193 0 c106 0 193 -1 193 -3z"/>
<path d="M2453 2620 l-50 -250 186 0 187 0 47 243 c26 133 48 245 47 250 0 4
-83 7 -184 7 l-183 0 -50 -250z"/>
</g>
</svg>
